<svg xmlns="http://www.w3.org/2000/svg" viewBox="0 0 380 135.43"><title>Asset 1</title><g id="Layer_2" data-name="Layer 2"><g id="Layer_1-2" data-name="Layer 1"><path id="_Path_" data-name="&lt;Path&gt;" d="M41.92,135.37q-17-.66-27.83-9.3a55.33,55.33,0,0,1-5.78-5.78A36.12,36.12,0,0,1,2,109c-4.1-12.28-2-28.38,6-46.06C14.94,47.81,25.54,32.8,44,12,46.76,9,54.87,0,54.92,0s-.42.77-1,1.7A108.81,108.81,0,0,0,42.78,27.45c-3.6,13.18-3.17,24.49,1.27,33.26A32.46,32.46,0,0,0,58.26,74.87c10.33,5.07,25.46,5.48,43.93,1.23,1.28-.3,64.3-17,140.05-37.18S380,2.29,380,2.3,204,77.64,112.62,116.72c-14.47,6.18-18.34,7.75-25.14,10.13C70.09,133,54.51,135.87,41.92,135.37Z"/></g></g></svg>